<svg width="98" height="22" viewBox="0 0 98 22" fill="none" xmlns="http://www.w3.org/2000/svg">
<rect width="14" height="8" transform="matrix(1 0 0 -1 17 8)" fill="#FA921C"/>
<rect width="14" height="8" transform="matrix(1 0 0 -1 0 8)" fill="#4062B6"/>
<rect width="14" height="9" transform="matrix(1 0 0 -1 17 22)" fill="#FA921C"/>
<rect width="14" height="9" transform="matrix(1 0 0 -1 0 22)" fill="#4062B6"/>
<rect width="13" height="8" transform="matrix(1 0 0 -1 34 8)" fill="#4062B6"/>
<rect width="13" height="8" transform="matrix(1 0 0 -1 51 8)" fill="#FA921C"/>
<rect width="14" height="8" transform="matrix(1 0 0 -1 67 8)" fill="#4062B6"/>
<rect width="14" height="8" transform="matrix(1 0 0 -1 84 8)" fill="#FA921C"/>
<rect width="14" height="9" transform="matrix(1 0 0 -1 67 22)" fill="#4062B6"/>
<rect width="14" height="9" transform="matrix(1 0 0 -1 84 22)" fill="#FA921C"/>
<rect width="13" height="9" transform="matrix(1 0 0 -1 34 22)" fill="#4062B6"/>
<rect width="13" height="9" transform="matrix(1 0 0 -1 51 22)" fill="#FA921C"/>
</svg>
