<svg width="1200" height="500" viewBox="0 0 1200 500" fill="none" xmlns="http://www.w3.org/2000/svg">
<g clip-path="url(#clip0_44_161)">
<rect width="1200" height="500" fill="#0A1D4B"/>
<path d="M21.8652 427H1162L1298 499H-99L21.8652 427Z" fill="#040F28"/>
<rect x="192" y="9" width="795" height="417" fill="#2E4A8E"/>
<rect x="198" y="15" width="782" height="405" fill="#040F28"/>
<rect x="41" y="259" width="129" height="193" fill="#2E4A8E"/>
<rect width="129" height="193" transform="matrix(-1 0 0 1 1134 258)" fill="#2E4A8E"/>
<ellipse cx="96" cy="46" rx="39" ry="21" fill="#FA921C"/>
<ellipse cx="39" cy="21" rx="39" ry="21" transform="matrix(-1 0 0 1 1128 27)" fill="#FA921C"/>
<path d="M57 49L85.9213 109H105.475L135 49H57Z" fill="#FA921C"/>
<path d="M1128 51L1099.08 111H1079.53L1050 51H1128Z" fill="#FA921C"/>
<path d="M369.641 443H802.39L891 486H280L369.641 443Z" fill="#FA921C"/>
<rect x="274" y="484" width="632" height="16" fill="#2E4A8E"/>
<path d="M26 245H137.16L169 258H40.2568L26 245Z" fill="#FA921C"/>
<path d="M1149 244H1037.84L1006 257H1134.74L1149 244Z" fill="#FA921C"/>
<path d="M26 248L39 259.946V452L26 428.422V248Z" fill="#2E4A8E"/>
<path d="M1149 247L1136 258.946V451L1149 427.422V247Z" fill="#FA921C"/>
<path d="M365.161 443L276 483H296.5L366 450.5H814.703L883 483H906L814.703 443H365.161Z" fill="#2E4A8E"/>
<rect x="562" y="426" width="55" height="17" fill="#0A1D4B"/>
<path d="M95.5 144C114.002 144 129 126.987 129 106H62C62 126.987 76.9985 144 95.5 144Z" fill="#2E4A8E"/>
<path d="M1089.5 146C1108 146 1123 128.987 1123 108H1056C1056 128.987 1071 146 1089.5 146Z" fill="#2E4A8E"/>
<path d="M129 106H112.304C115.957 115.086 114.913 134.286 105 142C115.957 141.486 129 124 129 106Z" fill="#E76900"/>
<path d="M1123 108H1106.3C1109.96 117.086 1108.91 136.286 1099 144C1109.96 143.486 1123 126 1123 108Z" fill="#E76900"/>
<path d="M161 384.5C161 414.6 136.6 439 106.5 439C76.4005 439 52 414.6 52 384.5C52 354.4 76.4005 330 106.5 330C136.6 330 161 354.4 161 384.5Z" fill="#0A1D4B"/>
<path d="M1014 383.5C1014 413.6 1038.4 438 1068.5 438C1098.6 438 1123 413.6 1123 383.5C1123 353.4 1098.6 329 1068.5 329C1038.4 329 1014 353.4 1014 383.5Z" fill="#0A1D4B"/>
<circle cx="105.5" cy="296.5" r="25.5" fill="#0A1D4B"/>
<circle cx="25.5" cy="25.5" r="25.5" transform="matrix(-1 0 0 1 1095 270)" fill="#0A1D4B"/>
<ellipse cx="99.5" cy="293" rx="9.5" ry="9" fill="#040F28"/>
<ellipse cx="9.5" cy="9" rx="9.5" ry="9" transform="matrix(-1 0 0 1 1085 283)" fill="#040F28"/>
<ellipse cx="99.5" cy="377" rx="28.5" ry="29" fill="#040F28"/>
<ellipse cx="28.5" cy="29" rx="28.5" ry="29" transform="matrix(-1 0 0 1 1104 347)" fill="#040F28"/>
<path d="M405 452H412L391 468H376L405 452Z" fill="#0A1D4B"/>
<path d="M475 452H483L475 468H465L475 452Z" fill="#0A1D4B"/>
<path d="M546 452H553L548.5 468H539L546 452Z" fill="#0A1D4B"/>
<path d="M434 452H442L429 468H419L434 452Z" fill="#0A1D4B"/>
<path d="M505 452H512L506 468H495.5L505 452Z" fill="#0A1D4B"/>
<path d="M575 452H582L579 468H571L575 452Z" fill="#0A1D4B"/>
<path d="M417 452H424L410.5 468H399.5L417 452Z" fill="#0A1D4B"/>
<path d="M487 452H494L488.5 468H477.5L487 452Z" fill="#0A1D4B"/>
<path d="M557 452H564L562.5 468H553.5L557 452Z" fill="#0A1D4B"/>
<path d="M446 452H453L443.5 468H433.5L446 452Z" fill="#0A1D4B"/>
<path d="M516 452H524L520 468H509.5L516 452Z" fill="#0A1D4B"/>
<path d="M586 452H594L591.5 468H583L586 452Z" fill="#0A1D4B"/>
<path d="M457 452H465L457 468H447.5L457 452Z" fill="#0A1D4B"/>
<path d="M528 452H535L532.5 468H523.5L528 452Z" fill="#0A1D4B"/>
<rect x="598" y="452" width="7" height="16" fill="#0A1D4B"/>
<path d="M804 452H797L815 468H830L804 452Z" fill="#0A1D4B"/>
<path d="M734 452H726L734 468H744L734 452Z" fill="#0A1D4B"/>
<path d="M663 452H656L660.5 468H670L663 452Z" fill="#0A1D4B"/>
<path d="M775 452H767L780 468H790L775 452Z" fill="#0A1D4B"/>
<path d="M704 452H697L703 468H713.5L704 452Z" fill="#0A1D4B"/>
<path d="M634 452H627L630 468H638L634 452Z" fill="#0A1D4B"/>
<path d="M792 452H785L798.5 468H809.5L792 452Z" fill="#0A1D4B"/>
<path d="M722 452H715L720.5 468H731.5L722 452Z" fill="#0A1D4B"/>
<path d="M652 452H645L646.5 468H655.5L652 452Z" fill="#0A1D4B"/>
<path d="M763 452H756L765.5 468H775.5L763 452Z" fill="#0A1D4B"/>
<path d="M693 452H685L689 468H699.5L693 452Z" fill="#0A1D4B"/>
<path d="M623 452H615L617.5 468H626L623 452Z" fill="#0A1D4B"/>
<path d="M752 452H744L752 468H761.5L752 452Z" fill="#0A1D4B"/>
<path d="M681 452H674L676.5 468H685.5L681 452Z" fill="#0A1D4B"/>
<path d="M334.5 483L400.5 443.5H364.5L275 483H334.5Z" fill="#E76900"/>
<ellipse cx="366.5" cy="449.5" rx="3.5" ry="0.5" fill="#2E4A8E"/>
<ellipse cx="346.5" cy="456.5" rx="4.5" ry="1.5" fill="#2E4A8E"/>
<ellipse cx="363.5" cy="456.5" rx="4.5" ry="1.5" fill="#2E4A8E"/>
<path d="M168 443.5L245.5 441L190.28 456H103L168 443.5Z" fill="#E76900"/>
<rect x="103" y="456" width="86" height="22" fill="#4062B6"/>
<ellipse cx="129" cy="467.5" rx="2" ry="2.5" fill="#0A1D4B"/>
<ellipse cx="136" cy="467.5" rx="2" ry="2.5" fill="#0A1D4B"/>
<circle cx="146.5" cy="469.5" r="1.5" fill="#0A1D4B"/>
<circle cx="146.5" cy="465.5" r="1.5" fill="#0A1D4B"/>
<ellipse cx="159.5" cy="467.5" rx="4.5" ry="5.5" fill="#040F28"/>
<ellipse cx="175.5" cy="464" rx="2.5" ry="3" fill="#040F28"/>
<ellipse cx="175.5" cy="471" rx="1.5" ry="2" fill="#040F28"/>
<ellipse cx="116.5" cy="467" rx="5.5" ry="7" fill="#040F28"/>
<path d="M246 452L189.5 478V456.5L246 441V452Z" fill="#FA921C"/>
<rect x="376" y="468" width="15" height="5" fill="#2E4A8E"/>
<rect x="400" y="468" width="10" height="5" fill="#2E4A8E"/>
<rect x="419" y="468" width="10" height="5" fill="#2E4A8E"/>
<rect x="433" y="468" width="10" height="5" fill="#2E4A8E"/>
<rect x="447" y="468" width="10" height="5" fill="#2E4A8E"/>
<rect x="465" y="468" width="10" height="5" fill="#2E4A8E"/>
<rect x="477" y="468" width="11" height="5" fill="#2E4A8E"/>
<rect x="496" y="468" width="10" height="5" fill="#2E4A8E"/>
</g>
<defs>
<clipPath id="clip0_44_161">
<rect width="1200" height="500" fill="white"/>
</clipPath>
</defs>
</svg>
