<svg width="1200" height="500" viewBox="0 0 1200 500" fill="none" xmlns="http://www.w3.org/2000/svg">
<g clip-path="url(#clip0_44_161)">
<rect width="1200" height="500" fill="#0A1D4B"/>
<path d="M21.8652 427H1183.5L1319 500H-99L21.8652 427Z" fill="#040F28"/>
<rect x="202" y="9" width="795" height="417" fill="#2E4A8E"/>
<rect x="209" y="15" width="782" height="405" fill="#040F28"/>
<path d="M379.641 443H812.39L901 486H290L379.641 443Z" fill="#FA921C"/>
<rect x="286" y="483" width="632" height="16" fill="#2E4A8E"/>
<path d="M375.161 443L286 483H306.5L376 450.5H824.703L893 483H916L824.703 443H375.161Z" fill="#E76900"/>
<rect x="572" y="426" width="55" height="17" fill="#0A1D4B"/>
<path d="M95.5 144C114.002 144 129 126.987 129 106H62C62 126.987 76.9985 144 95.5 144Z" fill="#4062B6"/>
<path d="M1089.5 146C1108 146 1123 128.987 1123 108H1056C1056 128.987 1071 146 1089.5 146Z" fill="#4062B6"/>
<path d="M129 106H112.304C115.957 115.086 114.913 134.286 105 142C115.957 141.486 129 124 129 106Z" fill="#E76900"/>
<path d="M1123 108H1106.3C1109.96 117.086 1108.91 136.286 1099 144C1109.96 143.486 1123 126 1123 108Z" fill="#E76900"/>
<path d="M415 452H422L401 468H386L415 452Z" fill="#0A1D4B"/>
<path d="M485 452H493L485 468H475L485 452Z" fill="#0A1D4B"/>
<path d="M556 452H563L558 468H549L556 452Z" fill="#0A1D4B"/>
<path d="M444 452H452L439 468H429L444 452Z" fill="#0A1D4B"/>
<path d="M515 452H522L516 468H505L515 452Z" fill="#0A1D4B"/>
<path d="M585 452H592L589 468H580L585 452Z" fill="#0A1D4B"/>
<path d="M427 452H434L420 468H409L427 452Z" fill="#0A1D4B"/>
<path d="M497 452H504L498 468H487L497 452Z" fill="#0A1D4B"/>
<path d="M567 452H574L572 468H563L567 452Z" fill="#0A1D4B"/>
<path d="M456 452H463L453 468H443L456 452Z" fill="#0A1D4B"/>
<path d="M526 452H534L530 468H519L526 452Z" fill="#0A1D4B"/>
<path d="M596 452H604L602 468H593L596 452Z" fill="#0A1D4B"/>
<path d="M467 452H475L467 468H457L467 452Z" fill="#0A1D4B"/>
<path d="M538 452H545L542 468H533L538 452Z" fill="#0A1D4B"/>
<path d="M608 452H615L616 468H607L608 452Z" fill="#0A1D4B"/>
<path d="M814 452H807L828 468H839.5L814 452Z" fill="#0A1D4B"/>
<path d="M744 452H736L745 468H755L744 452Z" fill="#0A1D4B"/>
<path d="M673 452H666L671 468H680L673 452Z" fill="#0A1D4B"/>
<path d="M785 452H777L791 468H801L785 452Z" fill="#0A1D4B"/>
<path d="M714 452H707L713 468H723L714 452Z" fill="#0A1D4B"/>
<path d="M644 452H637L640 468H648L644 452Z" fill="#0A1D4B"/>
<path d="M802 452H795L810 468H821L802 452Z" fill="#0A1D4B"/>
<path d="M732 452H725L732 468H742L732 452Z" fill="#0A1D4B"/>
<path d="M662 452H655L657 468H666L662 452Z" fill="#0A1D4B"/>
<path d="M773 452H766L777 468H787L773 452Z" fill="#0A1D4B"/>
<path d="M703 452H695L700 468H709L703 452Z" fill="#0A1D4B"/>
<path d="M632.5 452H625L628 468H636L632.5 452Z" fill="#0A1D4B"/>
<path d="M762 452H754L763 468H773L762 452Z" fill="#0A1D4B"/>
<path d="M63.2828 270.581L176.766 265.467V449.553L63.2828 464.5V270.581Z" fill="#4062B6"/>
<path d="M33 262.5L62 269.957V464.5L33 429.5V262.5Z" fill="#4062B6"/>
<path d="M33.5 261L119 258L176.766 264.229L62.8463 268.959L33.5 261Z" fill="#FA921C"/>
<ellipse cx="121.112" cy="389.882" rx="50.9219" ry="56.6192" transform="rotate(2.38456 121.112 389.882)" fill="#112B6A"/>
<ellipse cx="120.898" cy="303.441" rx="19.2049" ry="21.3873" fill="#112B6A"/>
<path d="M1132.48 270.581L1019 265.467V449.553L1132.48 464.5V270.581Z" fill="#4062B6"/>
<path d="M1162.77 262.5L1133.77 269.957V464.5L1162.77 429.5V262.5Z" fill="#4062B6"/>
<path d="M1162.27 261L1076.77 258L1019 264.229L1132.92 268.959L1162.27 261Z" fill="#FA921C"/>
<ellipse cx="50.9219" cy="56.6192" rx="50.9219" ry="56.6192" transform="matrix(-0.999134 0.0416065 0.0416065 0.999134 1123.18 331.193)" fill="#112B6A"/>
<ellipse cx="19.2049" cy="21.3873" rx="19.2049" ry="21.3873" transform="matrix(-1 0 0 1 1094.07 282.053)" fill="#112B6A"/>
<path d="M691 452H684L687 468H696L691 452Z" fill="#0A1D4B"/>
<path d="M344.5 483L410.5 443.5H374.5L285 483H344.5Z" fill="#E76900"/>
<ellipse cx="376.5" cy="449.5" rx="3.5" ry="0.5" fill="#2E4A8E"/>
<ellipse cx="356.5" cy="456.5" rx="4.5" ry="1.5" fill="#2E4A8E"/>
<ellipse cx="373.5" cy="456.5" rx="4.5" ry="1.5" fill="#2E4A8E"/>
<path d="M173 443.5L250.5 441L195.28 456H108L173 443.5Z" fill="#E76900"/>
<rect x="108" y="456" width="86" height="22" fill="#4062B6"/>
<ellipse cx="134" cy="467.5" rx="2" ry="2.5" fill="#0A1D4B"/>
<ellipse cx="141" cy="467.5" rx="2" ry="2.5" fill="#0A1D4B"/>
<circle cx="151.5" cy="469.5" r="1.5" fill="#0A1D4B"/>
<circle cx="151.5" cy="465.5" r="1.5" fill="#0A1D4B"/>
<ellipse cx="164.5" cy="467.5" rx="4.5" ry="5.5" fill="#040F28"/>
<ellipse cx="180.5" cy="464" rx="2.5" ry="3" fill="#040F28"/>
<ellipse cx="180.5" cy="471" rx="1.5" ry="2" fill="#040F28"/>
<ellipse cx="121.5" cy="467" rx="5.5" ry="7" fill="#040F28"/>
<path d="M251 452L194.5 478V456.5L251 441V452Z" fill="#FA921C"/>
<rect x="386" y="468" width="15" height="5" fill="#2E4A8E"/>
<rect x="409" y="468" width="11" height="5" fill="#2E4A8E"/>
<rect x="429" y="468" width="10" height="5" fill="#2E4A8E"/>
<rect x="443" y="468" width="10" height="5" fill="#2E4A8E"/>
<rect x="457" y="468" width="10" height="5" fill="#2E4A8E"/>
<rect x="475" y="468" width="10" height="5" fill="#2E4A8E"/>
<rect x="487" y="468" width="11" height="5" fill="#2E4A8E"/>
<rect x="505" y="468" width="11" height="5" fill="#2E4A8E"/>
<rect x="519" y="468" width="11" height="5" fill="#2E4A8E"/>
<rect x="533" y="468" width="9" height="5" fill="#2E4A8E"/>
<rect x="549" y="468" width="9" height="5" fill="#2E4A8E"/>
<rect x="563" y="468" width="9" height="5" fill="#2E4A8E"/>
<rect x="580" y="468" width="9" height="5" fill="#2E4A8E"/>
<rect x="593" y="468" width="9" height="5" fill="#2E4A8E"/>
<rect x="607" y="468" width="9" height="5" fill="#2E4A8E"/>
<rect x="628" y="468" width="8" height="5" fill="#2E4A8E"/>
<rect x="640" y="468" width="8" height="5" fill="#2E4A8E"/>
<rect x="657" y="468" width="9" height="5" fill="#2E4A8E"/>
<rect x="671" y="468" width="9" height="5" fill="#2E4A8E"/>
<rect x="687" y="468" width="9" height="5" fill="#2E4A8E"/>
<rect x="700" y="468" width="9" height="5" fill="#2E4A8E"/>
<rect x="713" y="468" width="10" height="5" fill="#2E4A8E"/>
<rect x="732" y="468" width="10" height="5" fill="#2E4A8E"/>
<rect x="745" y="468" width="10" height="5" fill="#2E4A8E"/>
<rect x="763" y="468" width="10" height="5" fill="#2E4A8E"/>
<rect x="777" y="468" width="10" height="5" fill="#2E4A8E"/>
<rect x="791" y="468" width="10" height="5" fill="#2E4A8E"/>
<rect x="810" y="468" width="11" height="5" fill="#2E4A8E"/>
<rect x="828" y="468" width="12" height="5" fill="#2E4A8E"/>
</g>
<defs>
<clipPath id="clip0_44_161">
<rect width="1200" height="500" fill="white"/>
</clipPath>
</defs>
</svg>
