<svg width="63" height="55" viewBox="0 0 63 55" fill="none" xmlns="http://www.w3.org/2000/svg">
<path d="M1 41.7163V11C1 24.8719 58.6111 26.3581 62 11.4954V42.7071C58.6111 57.0744 4.38889 56.0836 1 41.7163Z" fill="#E76900"/>
<path d="M0 18V12C11.5 26 58 23 63 12V18C50.5 29.5 9.5 29.5 0 18Z" fill="#0A1D4B"/>
<path d="M0 46V40C14.5 53.5 52 51.7568 63 40V46C50.5 57.5 13 57 0 46Z" fill="#0A1D4B"/>
<ellipse cx="31.5" cy="11" rx="31.5" ry="11" fill="#BACDFB"/>
<path d="M62 41V19C57.5 22 53 23.5 50 24.5V47C52.5 46.5 57.5 44.5 62 41Z" fill="#FA921C"/>
</svg>
