<svg width="51" height="69" viewBox="0 0 51 69" fill="none" xmlns="http://www.w3.org/2000/svg">
<path d="M1 51.6864V10C1 28.8261 47.2778 30.8432 50 10.6724V53.0311C47.2778 72.5296 3.72222 71.1849 1 51.6864Z" fill="#E76900"/>
<path d="M0 58.48V51C11.7381 67.83 42.0952 65.6568 51 51V58.48C40.881 72.8166 10.5238 72.1933 0 58.48Z" fill="#0A1D4B"/>
<path d="M50 52.5615V18C46 21.7333 42.5 22.5667 40 24.0667V60C42.0833 59.25 46 57.5615 50 52.5615Z" fill="#FA921C"/>
<path d="M0 18.0615V10.5615C9.30952 26.835 46.9524 23.3478 51 10.5615V18.5615C45 30.0615 6 29.0615 0 18.0615Z" fill="#0A1D4B"/>
<ellipse cx="25.5" cy="11" rx="25.5" ry="11" fill="#BACDFB"/>
</svg>
